<svg xmlns="http://www.w3.org/2000/svg" viewBox="0 0 512 512" width="512" height="512"><defs><filter id="b2" filterUnits="userSpaceOnUse" x="-300" y="-300" width="1400" height="1400"><feGaussianBlur stdDeviation="2"/></filter><filter id="b5" filterUnits="userSpaceOnUse" x="-300" y="-300" width="1400" height="1400"><feGaussianBlur stdDeviation="5"/></filter><filter id="b10" filterUnits="userSpaceOnUse" x="-300" y="-300" width="1400" height="1400"><feGaussianBlur stdDeviation="10"/></filter><filter id="b18" filterUnits="userSpaceOnUse" x="-300" y="-300" width="1400" height="1400"><feGaussianBlur stdDeviation="18"/></filter><filter id="round" x="-10%" y="-10%" width="120%" height="120%" color-interpolation-filters="sRGB"><feGaussianBlur stdDeviation="11" result="b"/><feColorMatrix in="b" type="matrix" values="1 0 0 0 0  0 1 0 0 0  0 0 1 0 0  0 0 0 22 -10"/></filter><filter id="grain" x="0" y="0" width="100%" height="100%"><feTurbulence type="fractalNoise" baseFrequency="0.85" numOctaves="2" seed="7" result="n"/><feColorMatrix in="n" type="matrix" values="0 0 0 0 0.15  0 0 0 0 0.08  0 0 0 0 0.2  0 0 0 1.1 -0.42"/></filter><filter id="marble" x="-20%" y="-20%" width="140%" height="140%"><feTurbulence type="fractalNoise" baseFrequency="0.006 0.010" numOctaves="2" seed="4" result="t"/><feDisplacementMap in="SourceGraphic" in2="t" scale="80" xChannelSelector="R" yChannelSelector="G"/><feGaussianBlur stdDeviation="3.5"/></filter><linearGradient id="shade" x1="0.2" y1="0.0" x2="0.8" y2="1.0"><stop offset="0" stop-color="#ffffff" stop-opacity="0.0"/><stop offset="0.55" stop-color="#3a2150" stop-opacity="0.0"/><stop offset="1" stop-color="#2a1740" stop-opacity="0.34"/></linearGradient><clipPath id="body"><path d="M92 380 C82 252 160 148 256 148 C352 148 430 252 420 380 C420 414 394 428 352 430 L160 430 C118 428 92 414 92 380 Z"/></clipPath><radialGradient id="dome" cx="0.36" cy="0.26" r="0.95" fx="0.36" fy="0.26"><stop offset="0" stop-color="#ffece0"/><stop offset="0.55" stop-color="#fbc4a8"/><stop offset="1" stop-color="#e0906c"/></radialGradient></defs><g transform="translate(-35.8 -36.7) scale(1.14)"><ellipse cx="256" cy="432" rx="190" ry="20" fill="#3a2150" opacity="0.26" filter="url(#b10)"/><ellipse cx="256" cy="429" rx="117.8" ry="11.0" fill="#241338" opacity="0.234" filter="url(#b5)"/><path d="M92 380 C82 252 160 148 256 148 C352 148 430 252 420 380 C420 414 394 428 352 430 L160 430 C118 428 92 414 92 380 Z" fill="url(#dome)"/><g clip-path="url(#body)"><circle cx="161.9" cy="425.3" r="1.8" fill="#ffd4bd" opacity="0.50"/><circle cx="112.6" cy="272.1" r="1.3" fill="#ffd4bd" opacity="0.39"/><circle cx="197.6" cy="411.9" r="2.2" fill="#e58e68" opacity="0.66"/><circle cx="256.5" cy="284.9" r="1.6" fill="#ffd4bd" opacity="0.87"/><circle cx="123.3" cy="425.8" r="1.3" fill="#fff3ea" opacity="0.68"/><circle cx="85.9" cy="374.5" r="1.2" fill="#e58e68" opacity="0.83"/><circle cx="300.4" cy="397.6" r="2.5" fill="#ffd4bd" opacity="0.47"/><circle cx="385.2" cy="205.7" r="1.4" fill="#fff3ea" opacity="0.51"/><circle cx="169.3" cy="232.5" r="2.1" fill="#ffd4bd" opacity="0.44"/><circle cx="409.0" cy="271.5" r="2.4" fill="#ffd4bd" opacity="0.54"/><circle cx="171.8" cy="269.6" r="2.6" fill="#fff3ea" opacity="0.44"/><circle cx="93.2" cy="358.5" r="1.8" fill="#ffd4bd" opacity="0.84"/><circle cx="132.1" cy="369.0" r="2.6" fill="#e58e68" opacity="0.36"/><circle cx="230.3" cy="299.9" r="1.5" fill="#e58e68" opacity="0.37"/><circle cx="352.8" cy="401.2" r="1.5" fill="#fff3ea" opacity="0.35"/><circle cx="81.9" cy="166.3" r="1.9" fill="#ffd4bd" opacity="0.74"/><circle cx="135.4" cy="418.6" r="2.2" fill="#ffd4bd" opacity="0.76"/><circle cx="241.3" cy="273.7" r="2.0" fill="#ffd4bd" opacity="0.60"/><circle cx="98.6" cy="272.1" r="2.5" fill="#e58e68" opacity="0.64"/><circle cx="140.4" cy="377.6" r="2.2" fill="#ffd4bd" opacity="0.54"/><circle cx="140.7" cy="255.9" r="1.5" fill="#fff3ea" opacity="0.55"/><circle cx="82.7" cy="247.1" r="2.3" fill="#fff3ea" opacity="0.69"/><circle cx="313.9" cy="371.8" r="2.5" fill="#e58e68" opacity="0.61"/><circle cx="419.4" cy="167.4" r="1.6" fill="#fff3ea" opacity="0.85"/><circle cx="80.3" cy="283.7" r="2.6" fill="#fff3ea" opacity="0.54"/><circle cx="96.0" cy="240.1" r="2.1" fill="#e58e68" opacity="0.56"/><circle cx="426.3" cy="386.7" r="2.0" fill="#ffd4bd" opacity="0.77"/><circle cx="249.9" cy="354.4" r="1.6" fill="#ffd4bd" opacity="0.37"/><circle cx="158.4" cy="174.3" r="1.4" fill="#fff3ea" opacity="0.69"/><circle cx="401.0" cy="210.4" r="1.7" fill="#fff3ea" opacity="0.84"/><circle cx="417.9" cy="206.6" r="2.4" fill="#e58e68" opacity="0.35"/><circle cx="338.4" cy="404.0" r="1.3" fill="#fff3ea" opacity="0.54"/><circle cx="89.4" cy="329.2" r="1.5" fill="#fff3ea" opacity="0.80"/><circle cx="173.8" cy="404.0" r="1.3" fill="#e58e68" opacity="0.45"/><circle cx="177.1" cy="318.2" r="2.3" fill="#fff3ea" opacity="0.60"/><circle cx="212.3" cy="363.9" r="1.3" fill="#e58e68" opacity="0.88"/><circle cx="186.1" cy="254.7" r="2.8" fill="#e58e68" opacity="0.67"/><circle cx="344.1" cy="413.7" r="2.4" fill="#e58e68" opacity="0.72"/><circle cx="135.6" cy="216.8" r="2.2" fill="#fff3ea" opacity="0.44"/><circle cx="237.5" cy="261.1" r="2.7" fill="#ffd4bd" opacity="0.41"/><circle cx="117.6" cy="263.7" r="1.3" fill="#ffd4bd" opacity="0.75"/><circle cx="264.4" cy="218.7" r="2.3" fill="#fff3ea" opacity="0.75"/><circle cx="235.1" cy="418.7" r="1.9" fill="#ffd4bd" opacity="0.35"/><circle cx="317.3" cy="300.1" r="1.4" fill="#ffd4bd" opacity="0.89"/><circle cx="311.7" cy="272.4" r="1.8" fill="#ffd4bd" opacity="0.64"/><circle cx="393.1" cy="402.3" r="2.7" fill="#fff3ea" opacity="0.42"/><circle cx="182.8" cy="214.1" r="2.0" fill="#ffd4bd" opacity="0.71"/><circle cx="235.7" cy="214.8" r="1.7" fill="#ffd4bd" opacity="0.45"/><circle cx="102.0" cy="326.0" r="2.8" fill="#ffd4bd" opacity="0.39"/><circle cx="83.9" cy="347.1" r="2.7" fill="#fff3ea" opacity="0.66"/><circle cx="295.1" cy="205.4" r="2.3" fill="#e58e68" opacity="0.38"/><circle cx="321.7" cy="164.1" r="2.1" fill="#fff3ea" opacity="0.87"/><circle cx="226.2" cy="322.2" r="2.1" fill="#e58e68" opacity="0.72"/><circle cx="182.7" cy="237.9" r="2.5" fill="#ffd4bd" opacity="0.87"/><circle cx="89.4" cy="247.8" r="2.0" fill="#fff3ea" opacity="0.86"/><circle cx="320.8" cy="178.6" r="2.2" fill="#e58e68" opacity="0.69"/><circle cx="312.0" cy="402.1" r="1.3" fill="#ffd4bd" opacity="0.52"/><circle cx="213.0" cy="320.7" r="1.3" fill="#fff3ea" opacity="0.59"/><circle cx="428.5" cy="416.2" r="1.3" fill="#fff3ea" opacity="0.78"/><circle cx="274.4" cy="385.8" r="2.2" fill="#fff3ea" opacity="0.59"/><circle cx="315.6" cy="285.0" r="1.5" fill="#ffd4bd" opacity="0.78"/><circle cx="304.8" cy="356.4" r="1.2" fill="#ffd4bd" opacity="0.40"/><circle cx="290.5" cy="355.8" r="2.1" fill="#ffd4bd" opacity="0.53"/><circle cx="390.8" cy="339.6" r="1.3" fill="#ffd4bd" opacity="0.40"/><circle cx="82.0" cy="159.1" r="2.0" fill="#e58e68" opacity="0.38"/><circle cx="395.7" cy="391.5" r="1.6" fill="#fff3ea" opacity="0.50"/><circle cx="209.2" cy="260.0" r="1.7" fill="#ffd4bd" opacity="0.45"/><circle cx="341.7" cy="362.8" r="1.4" fill="#e58e68" opacity="0.65"/><circle cx="250.4" cy="335.2" r="2.2" fill="#ffd4bd" opacity="0.67"/><circle cx="396.1" cy="347.7" r="2.5" fill="#ffd4bd" opacity="0.85"/><circle cx="227.3" cy="217.8" r="2.6" fill="#ffd4bd" opacity="0.66"/><circle cx="274.7" cy="300.7" r="2.5" fill="#e58e68" opacity="0.50"/><circle cx="353.5" cy="410.9" r="2.4" fill="#fff3ea" opacity="0.61"/><circle cx="308.4" cy="195.0" r="2.7" fill="#fff3ea" opacity="0.80"/><circle cx="236.3" cy="286.2" r="1.2" fill="#e58e68" opacity="0.44"/><circle cx="155.6" cy="315.9" r="1.5" fill="#e58e68" opacity="0.51"/><circle cx="404.0" cy="335.9" r="1.2" fill="#e58e68" opacity="0.88"/><circle cx="103.7" cy="225.4" r="1.9" fill="#fff3ea" opacity="0.85"/><circle cx="287.9" cy="356.1" r="1.2" fill="#ffd4bd" opacity="0.78"/><circle cx="286.8" cy="384.4" r="2.7" fill="#fff3ea" opacity="0.75"/><circle cx="299.3" cy="154.0" r="2.0" fill="#ffd4bd" opacity="0.38"/><circle cx="347.2" cy="358.8" r="2.6" fill="#fff3ea" opacity="0.78"/><circle cx="109.5" cy="176.7" r="2.6" fill="#e58e68" opacity="0.42"/><circle cx="308.4" cy="421.0" r="1.2" fill="#e58e68" opacity="0.90"/><circle cx="420.3" cy="343.1" r="1.5" fill="#ffd4bd" opacity="0.63"/><circle cx="330.4" cy="341.8" r="1.5" fill="#ffd4bd" opacity="0.47"/><circle cx="108.7" cy="341.3" r="1.8" fill="#fff3ea" opacity="0.82"/><circle cx="151.6" cy="381.7" r="2.0" fill="#fff3ea" opacity="0.68"/><circle cx="235.1" cy="367.0" r="1.5" fill="#e58e68" opacity="0.73"/><circle cx="182.4" cy="170.2" r="2.1" fill="#e58e68" opacity="0.81"/><circle cx="91.1" cy="361.3" r="2.5" fill="#e58e68" opacity="0.53"/><circle cx="81.4" cy="378.3" r="1.8" fill="#ffd4bd" opacity="0.40"/><circle cx="410.2" cy="279.1" r="2.8" fill="#fff3ea" opacity="0.87"/><circle cx="303.6" cy="324.3" r="2.4" fill="#e58e68" opacity="0.74"/><circle cx="223.1" cy="423.8" r="1.7" fill="#e58e68" opacity="0.56"/><circle cx="220.3" cy="339.8" r="1.5" fill="#ffd4bd" opacity="0.54"/><circle cx="404.7" cy="233.3" r="2.1" fill="#e58e68" opacity="0.76"/><circle cx="172.3" cy="380.3" r="2.5" fill="#e58e68" opacity="0.74"/><circle cx="116.7" cy="303.2" r="1.9" fill="#fff3ea" opacity="0.66"/><circle cx="320.9" cy="213.5" r="1.5" fill="#fff3ea" opacity="0.49"/><circle cx="376.7" cy="276.1" r="2.7" fill="#e58e68" opacity="0.81"/><circle cx="101.5" cy="427.2" r="1.7" fill="#e58e68" opacity="0.86"/><circle cx="154.9" cy="281.7" r="2.1" fill="#e58e68" opacity="0.80"/><circle cx="119.5" cy="158.1" r="2.4" fill="#fff3ea" opacity="0.38"/><circle cx="418.0" cy="271.0" r="1.9" fill="#ffd4bd" opacity="0.81"/><circle cx="87.1" cy="398.9" r="1.3" fill="#fff3ea" opacity="0.42"/><circle cx="381.9" cy="423.8" r="1.7" fill="#ffd4bd" opacity="0.77"/><circle cx="377.0" cy="351.1" r="1.7" fill="#e58e68" opacity="0.58"/><circle cx="185.4" cy="391.2" r="2.0" fill="#fff3ea" opacity="0.59"/><circle cx="248.4" cy="356.3" r="1.5" fill="#ffd4bd" opacity="0.42"/><circle cx="260.8" cy="156.0" r="1.8" fill="#fff3ea" opacity="0.44"/><circle cx="321.4" cy="364.5" r="2.3" fill="#e58e68" opacity="0.45"/><circle cx="431.5" cy="416.1" r="2.1" fill="#ffd4bd" opacity="0.69"/><circle cx="429.1" cy="400.5" r="1.9" fill="#ffd4bd" opacity="0.41"/><circle cx="171.8" cy="409.0" r="2.3" fill="#fff3ea" opacity="0.35"/><circle cx="353.9" cy="226.8" r="1.8" fill="#fff3ea" opacity="0.51"/><circle cx="220.2" cy="225.4" r="1.9" fill="#fff3ea" opacity="0.83"/><circle cx="363.6" cy="232.7" r="1.6" fill="#fff3ea" opacity="0.71"/><circle cx="207.6" cy="318.8" r="2.7" fill="#fff3ea" opacity="0.57"/><circle cx="263.3" cy="206.3" r="1.9" fill="#ffd4bd" opacity="0.84"/><circle cx="329.6" cy="190.8" r="1.8" fill="#e58e68" opacity="0.44"/><circle cx="361.8" cy="329.0" r="2.3" fill="#e58e68" opacity="0.44"/><circle cx="341.8" cy="392.7" r="1.4" fill="#e58e68" opacity="0.52"/><circle cx="430.2" cy="264.9" r="2.7" fill="#fff3ea" opacity="0.79"/><circle cx="382.0" cy="352.2" r="1.5" fill="#ffd4bd" opacity="0.66"/><circle cx="168.7" cy="303.9" r="2.8" fill="#ffd4bd" opacity="0.55"/><circle cx="422.2" cy="265.9" r="1.9" fill="#ffd4bd" opacity="0.86"/><circle cx="357.2" cy="348.2" r="2.2" fill="#fff3ea" opacity="0.39"/><circle cx="170.5" cy="164.8" r="1.3" fill="#e58e68" opacity="0.63"/><circle cx="230.3" cy="425.4" r="2.3" fill="#e58e68" opacity="0.60"/><circle cx="169.3" cy="264.0" r="2.2" fill="#e58e68" opacity="0.74"/><circle cx="101.8" cy="157.6" r="1.7" fill="#e58e68" opacity="0.81"/><circle cx="126.9" cy="427.2" r="2.0" fill="#e58e68" opacity="0.36"/><circle cx="351.2" cy="399.9" r="1.5" fill="#fff3ea" opacity="0.56"/><circle cx="105.4" cy="200.9" r="2.4" fill="#fff3ea" opacity="0.55"/><circle cx="96.2" cy="307.4" r="1.4" fill="#e58e68" opacity="0.52"/><circle cx="196.5" cy="276.6" r="1.8" fill="#ffd4bd" opacity="0.77"/><circle cx="342.0" cy="368.3" r="2.5" fill="#fff3ea" opacity="0.48"/><circle cx="114.9" cy="337.8" r="1.2" fill="#ffd4bd" opacity="0.78"/><circle cx="219.3" cy="216.2" r="1.6" fill="#e58e68" opacity="0.89"/><circle cx="128.0" cy="326.0" r="1.7" fill="#e58e68" opacity="0.51"/><circle cx="403.8" cy="165.0" r="1.2" fill="#e58e68" opacity="0.62"/><circle cx="329.0" cy="331.1" r="1.7" fill="#ffd4bd" opacity="0.80"/><circle cx="251.7" cy="159.7" r="2.3" fill="#ffd4bd" opacity="0.89"/><circle cx="207.4" cy="309.9" r="2.5" fill="#e58e68" opacity="0.56"/><circle cx="116.2" cy="347.9" r="1.3" fill="#e58e68" opacity="0.63"/><circle cx="351.7" cy="261.2" r="2.7" fill="#e58e68" opacity="0.39"/><circle cx="96.1" cy="219.2" r="1.7" fill="#ffd4bd" opacity="0.86"/><circle cx="371.4" cy="171.8" r="2.3" fill="#e58e68" opacity="0.53"/><circle cx="393.1" cy="247.6" r="1.5" fill="#fff3ea" opacity="0.47"/><circle cx="155.8" cy="294.8" r="1.7" fill="#e58e68" opacity="0.76"/><circle cx="415.6" cy="379.9" r="1.8" fill="#e58e68" opacity="0.67"/><circle cx="382.3" cy="214.6" r="2.1" fill="#ffd4bd" opacity="0.47"/><circle cx="84.5" cy="161.2" r="1.4" fill="#ffd4bd" opacity="0.75"/><circle cx="308.1" cy="226.0" r="2.8" fill="#e58e68" opacity="0.60"/><circle cx="378.7" cy="324.2" r="1.6" fill="#fff3ea" opacity="0.84"/><circle cx="267.6" cy="312.3" r="2.1" fill="#ffd4bd" opacity="0.82"/><circle cx="305.7" cy="371.2" r="2.0" fill="#e58e68" opacity="0.83"/><circle cx="133.3" cy="351.2" r="2.6" fill="#e58e68" opacity="0.46"/><circle cx="321.8" cy="362.9" r="2.1" fill="#fff3ea" opacity="0.76"/><circle cx="415.4" cy="198.9" r="1.6" fill="#e58e68" opacity="0.45"/><circle cx="146.7" cy="150.1" r="2.5" fill="#ffd4bd" opacity="0.71"/><circle cx="107.6" cy="149.8" r="1.8" fill="#e58e68" opacity="0.46"/><circle cx="261.6" cy="384.0" r="1.4" fill="#fff3ea" opacity="0.76"/><circle cx="122.5" cy="343.5" r="2.7" fill="#ffd4bd" opacity="0.59"/><circle cx="354.9" cy="264.7" r="1.4" fill="#e58e68" opacity="0.62"/><circle cx="81.0" cy="366.1" r="1.3" fill="#ffd4bd" opacity="0.55"/><circle cx="172.4" cy="169.0" r="1.9" fill="#fff3ea" opacity="0.78"/><circle cx="373.9" cy="424.1" r="1.3" fill="#fff3ea" opacity="0.86"/><circle cx="195.8" cy="407.0" r="2.5" fill="#fff3ea" opacity="0.44"/><circle cx="314.4" cy="384.6" r="1.3" fill="#e58e68" opacity="0.89"/><circle cx="209.8" cy="410.0" r="1.9" fill="#ffd4bd" opacity="0.81"/><circle cx="159.4" cy="216.3" r="1.8" fill="#fff3ea" opacity="0.41"/><circle cx="87.8" cy="175.4" r="1.9" fill="#fff3ea" opacity="0.42"/><circle cx="242.1" cy="152.4" r="1.4" fill="#fff3ea" opacity="0.85"/><circle cx="295.7" cy="174.8" r="2.0" fill="#e58e68" opacity="0.65"/><circle cx="353.6" cy="197.3" r="1.5" fill="#ffd4bd" opacity="0.81"/><circle cx="427.9" cy="195.9" r="2.1" fill="#fff3ea" opacity="0.88"/><circle cx="122.0" cy="285.7" r="2.3" fill="#e58e68" opacity="0.39"/><circle cx="178.4" cy="319.6" r="2.3" fill="#fff3ea" opacity="0.40"/><circle cx="181.5" cy="161.2" r="2.4" fill="#fff3ea" opacity="0.79"/><circle cx="243.7" cy="234.0" r="1.7" fill="#fff3ea" opacity="0.51"/><circle cx="427.9" cy="286.1" r="2.1" fill="#e58e68" opacity="0.59"/><circle cx="344.1" cy="376.9" r="1.8" fill="#fff3ea" opacity="0.66"/><circle cx="81.9" cy="273.9" r="2.7" fill="#ffd4bd" opacity="0.42"/><circle cx="130.3" cy="326.5" r="1.9" fill="#e58e68" opacity="0.83"/><circle cx="103.4" cy="265.9" r="1.3" fill="#e58e68" opacity="0.66"/><circle cx="342.7" cy="176.4" r="1.6" fill="#fff3ea" opacity="0.51"/><circle cx="392.2" cy="306.3" r="2.6" fill="#fff3ea" opacity="0.37"/><circle cx="91.9" cy="206.7" r="1.9" fill="#e58e68" opacity="0.45"/><circle cx="226.2" cy="408.8" r="2.2" fill="#ffd4bd" opacity="0.65"/><circle cx="115.6" cy="255.4" r="1.4" fill="#ffd4bd" opacity="0.87"/><circle cx="106.1" cy="298.0" r="1.9" fill="#fff3ea" opacity="0.60"/><circle cx="409.3" cy="293.6" r="2.5" fill="#ffd4bd" opacity="0.54"/><circle cx="207.7" cy="216.3" r="2.5" fill="#ffd4bd" opacity="0.56"/><circle cx="355.4" cy="309.7" r="2.6" fill="#fff3ea" opacity="0.69"/><circle cx="155.4" cy="374.8" r="1.6" fill="#fff3ea" opacity="0.59"/><circle cx="345.5" cy="222.8" r="2.3" fill="#fff3ea" opacity="0.64"/><circle cx="199.7" cy="170.0" r="1.9" fill="#e58e68" opacity="0.80"/><circle cx="273.0" cy="307.5" r="1.8" fill="#e58e68" opacity="0.48"/><circle cx="94.0" cy="166.5" r="2.7" fill="#fff3ea" opacity="0.74"/><circle cx="113.2" cy="218.8" r="1.6" fill="#fff3ea" opacity="0.35"/><circle cx="278.6" cy="376.1" r="2.0" fill="#fff3ea" opacity="0.87"/><circle cx="416.8" cy="206.2" r="1.7" fill="#e58e68" opacity="0.54"/><circle cx="280.7" cy="253.3" r="2.8" fill="#fff3ea" opacity="0.70"/><circle cx="265.2" cy="220.3" r="1.8" fill="#e58e68" opacity="0.90"/><circle cx="204.2" cy="262.1" r="1.2" fill="#ffd4bd" opacity="0.57"/><circle cx="149.1" cy="344.4" r="2.1" fill="#ffd4bd" opacity="0.72"/><circle cx="163.0" cy="199.8" r="1.6" fill="#fff3ea" opacity="0.79"/><circle cx="352.6" cy="222.4" r="2.5" fill="#ffd4bd" opacity="0.47"/><circle cx="366.3" cy="180.4" r="1.7" fill="#fff3ea" opacity="0.79"/><circle cx="419.3" cy="321.1" r="2.1" fill="#e58e68" opacity="0.73"/><circle cx="188.9" cy="377.0" r="2.2" fill="#e58e68" opacity="0.71"/><circle cx="233.0" cy="361.8" r="2.3" fill="#fff3ea" opacity="0.71"/><circle cx="356.0" cy="393.9" r="1.5" fill="#e58e68" opacity="0.69"/><circle cx="225.0" cy="318.6" r="1.3" fill="#e58e68" opacity="0.72"/><circle cx="169.8" cy="338.7" r="2.3" fill="#fff3ea" opacity="0.56"/><circle cx="116.7" cy="203.7" r="1.7" fill="#ffd4bd" opacity="0.39"/><circle cx="161.5" cy="149.0" r="1.9" fill="#e58e68" opacity="0.82"/><circle cx="183.9" cy="394.6" r="1.9" fill="#ffd4bd" opacity="0.85"/><circle cx="301.5" cy="389.6" r="2.3" fill="#e58e68" opacity="0.47"/><circle cx="80.4" cy="232.4" r="2.0" fill="#ffd4bd" opacity="0.80"/><circle cx="205.7" cy="284.7" r="2.3" fill="#fff3ea" opacity="0.41"/><circle cx="89.1" cy="290.3" r="1.4" fill="#e58e68" opacity="0.46"/><circle cx="264.3" cy="165.0" r="2.3" fill="#fff3ea" opacity="0.65"/><circle cx="270.3" cy="168.3" r="2.0" fill="#e58e68" opacity="0.81"/><circle cx="148.7" cy="326.2" r="2.1" fill="#e58e68" opacity="0.56"/><circle cx="358.6" cy="347.9" r="2.6" fill="#ffd4bd" opacity="0.78"/><circle cx="270.4" cy="404.0" r="1.5" fill="#ffd4bd" opacity="0.50"/><circle cx="330.4" cy="405.6" r="1.8" fill="#fff3ea" opacity="0.84"/><circle cx="383.3" cy="295.1" r="1.4" fill="#fff3ea" opacity="0.59"/><circle cx="127.5" cy="392.8" r="1.6" fill="#ffd4bd" opacity="0.75"/><circle cx="367.7" cy="267.7" r="2.3" fill="#ffd4bd" opacity="0.45"/><circle cx="236.5" cy="180.6" r="1.8" fill="#ffd4bd" opacity="0.75"/><circle cx="347.3" cy="422.3" r="2.0" fill="#e58e68" opacity="0.89"/><circle cx="240.8" cy="399.6" r="2.8" fill="#ffd4bd" opacity="0.46"/><circle cx="93.6" cy="319.2" r="1.3" fill="#ffd4bd" opacity="0.86"/><circle cx="188.2" cy="159.2" r="2.0" fill="#e58e68" opacity="0.61"/><circle cx="387.5" cy="325.9" r="1.6" fill="#e58e68" opacity="0.55"/><circle cx="195.1" cy="409.8" r="2.2" fill="#fff3ea" opacity="0.60"/><circle cx="265.2" cy="152.7" r="1.4" fill="#ffd4bd" opacity="0.86"/><circle cx="119.8" cy="250.1" r="2.0" fill="#ffd4bd" opacity="0.68"/><circle cx="241.9" cy="194.9" r="1.2" fill="#e58e68" opacity="0.74"/><circle cx="320.0" cy="360.9" r="2.7" fill="#e58e68" opacity="0.47"/><circle cx="231.8" cy="378.7" r="2.4" fill="#ffd4bd" opacity="0.74"/><circle cx="181.2" cy="335.3" r="2.5" fill="#fff3ea" opacity="0.63"/><circle cx="409.4" cy="196.3" r="1.5" fill="#ffd4bd" opacity="0.80"/><circle cx="92.0" cy="223.1" r="2.3" fill="#e58e68" opacity="0.75"/><circle cx="313.3" cy="320.8" r="1.8" fill="#ffd4bd" opacity="0.48"/><circle cx="313.2" cy="210.4" r="2.2" fill="#fff3ea" opacity="0.55"/><circle cx="91.3" cy="267.1" r="2.3" fill="#fff3ea" opacity="0.56"/><circle cx="233.6" cy="248.3" r="1.8" fill="#e58e68" opacity="0.63"/><circle cx="167.5" cy="258.4" r="2.3" fill="#ffd4bd" opacity="0.43"/><circle cx="113.5" cy="397.2" r="1.9" fill="#ffd4bd" opacity="0.56"/><circle cx="356.8" cy="311.3" r="2.4" fill="#ffd4bd" opacity="0.52"/><circle cx="115.8" cy="429.3" r="2.2" fill="#e58e68" opacity="0.57"/><circle cx="214.7" cy="243.4" r="1.7" fill="#fff3ea" opacity="0.36"/><circle cx="261.5" cy="161.5" r="1.4" fill="#ffd4bd" opacity="0.71"/><circle cx="259.5" cy="183.0" r="2.2" fill="#e58e68" opacity="0.88"/><circle cx="196.7" cy="364.1" r="2.1" fill="#fff3ea" opacity="0.73"/><circle cx="406.0" cy="318.2" r="2.2" fill="#e58e68" opacity="0.36"/><circle cx="349.4" cy="244.4" r="1.7" fill="#ffd4bd" opacity="0.64"/><circle cx="374.9" cy="344.4" r="2.0" fill="#ffd4bd" opacity="0.59"/><circle cx="187.3" cy="411.3" r="2.7" fill="#fff3ea" opacity="0.69"/><circle cx="251.0" cy="199.1" r="1.7" fill="#fff3ea" opacity="0.59"/><circle cx="398.5" cy="226.5" r="2.1" fill="#fff3ea" opacity="0.54"/><circle cx="168.2" cy="418.2" r="2.7" fill="#fff3ea" opacity="0.79"/><circle cx="141.8" cy="256.1" r="2.0" fill="#ffd4bd" opacity="0.85"/><circle cx="159.2" cy="318.4" r="2.6" fill="#fff3ea" opacity="0.49"/><circle cx="195.9" cy="195.6" r="1.2" fill="#e58e68" opacity="0.46"/><circle cx="369.2" cy="411.2" r="1.9" fill="#fff3ea" opacity="0.44"/><circle cx="395.7" cy="412.6" r="1.7" fill="#ffd4bd" opacity="0.63"/><circle cx="268.6" cy="230.4" r="1.3" fill="#ffd4bd" opacity="0.50"/><circle cx="143.3" cy="209.5" r="1.9" fill="#fff3ea" opacity="0.69"/><circle cx="197.2" cy="155.8" r="1.7" fill="#ffd4bd" opacity="0.55"/><circle cx="334.3" cy="222.8" r="1.4" fill="#e58e68" opacity="0.79"/><circle cx="238.8" cy="305.5" r="1.9" fill="#ffd4bd" opacity="0.83"/><circle cx="232.7" cy="218.9" r="2.1" fill="#fff3ea" opacity="0.41"/><circle cx="271.4" cy="421.5" r="2.3" fill="#ffd4bd" opacity="0.76"/><circle cx="395.3" cy="200.9" r="2.3" fill="#fff3ea" opacity="0.42"/><circle cx="304.5" cy="327.6" r="1.9" fill="#fff3ea" opacity="0.56"/><circle cx="260.5" cy="232.7" r="2.1" fill="#fff3ea" opacity="0.75"/><circle cx="98.8" cy="266.4" r="2.3" fill="#fff3ea" opacity="0.79"/><circle cx="109.8" cy="419.3" r="2.7" fill="#fff3ea" opacity="0.69"/><circle cx="179.2" cy="212.3" r="2.3" fill="#fff3ea" opacity="0.70"/><circle cx="430.6" cy="208.3" r="1.2" fill="#ffd4bd" opacity="0.44"/><circle cx="205.5" cy="353.0" r="1.6" fill="#ffd4bd" opacity="0.49"/><circle cx="337.8" cy="304.9" r="1.8" fill="#e58e68" opacity="0.52"/><circle cx="92.2" cy="262.8" r="2.6" fill="#ffd4bd" opacity="0.43"/><circle cx="412.2" cy="276.7" r="1.8" fill="#ffd4bd" opacity="0.48"/><circle cx="84.6" cy="234.4" r="1.8" fill="#e58e68" opacity="0.82"/><circle cx="333.8" cy="162.0" r="2.1" fill="#e58e68" opacity="0.54"/><circle cx="377.4" cy="360.2" r="1.5" fill="#e58e68" opacity="0.55"/><circle cx="168.1" cy="261.2" r="1.3" fill="#ffd4bd" opacity="0.82"/><circle cx="392.0" cy="371.4" r="2.3" fill="#fff3ea" opacity="0.36"/><circle cx="239.1" cy="403.2" r="2.8" fill="#fff3ea" opacity="0.78"/><circle cx="122.8" cy="399.7" r="1.9" fill="#ffd4bd" opacity="0.40"/><circle cx="303.9" cy="362.7" r="2.2" fill="#ffd4bd" opacity="0.50"/><circle cx="386.4" cy="382.9" r="1.4" fill="#ffd4bd" opacity="0.82"/><circle cx="407.9" cy="261.5" r="1.9" fill="#fff3ea" opacity="0.60"/><circle cx="386.0" cy="188.9" r="2.7" fill="#e58e68" opacity="0.74"/><circle cx="115.8" cy="183.8" r="1.8" fill="#ffd4bd" opacity="0.53"/><circle cx="80.9" cy="381.8" r="2.5" fill="#ffd4bd" opacity="0.86"/><circle cx="85.1" cy="321.3" r="1.6" fill="#ffd4bd" opacity="0.40"/><circle cx="293.3" cy="199.7" r="2.2" fill="#fff3ea" opacity="0.70"/><circle cx="85.6" cy="174.2" r="2.3" fill="#e58e68" opacity="0.46"/><circle cx="326.4" cy="413.7" r="2.4" fill="#fff3ea" opacity="0.89"/><circle cx="234.9" cy="365.4" r="1.6" fill="#fff3ea" opacity="0.59"/><circle cx="242.8" cy="364.2" r="2.5" fill="#e58e68" opacity="0.73"/><circle cx="152.3" cy="320.8" r="2.3" fill="#fff3ea" opacity="0.47"/><circle cx="132.6" cy="277.3" r="1.5" fill="#fff3ea" opacity="0.44"/><circle cx="134.0" cy="429.4" r="2.4" fill="#fff3ea" opacity="0.87"/><circle cx="155.6" cy="347.9" r="2.6" fill="#fff3ea" opacity="0.57"/><circle cx="425.5" cy="194.0" r="2.3" fill="#fff3ea" opacity="0.57"/><circle cx="386.8" cy="177.4" r="2.4" fill="#ffd4bd" opacity="0.36"/><circle cx="114.9" cy="401.7" r="1.2" fill="#e58e68" opacity="0.52"/><circle cx="217.4" cy="160.7" r="2.7" fill="#fff3ea" opacity="0.76"/><circle cx="164.7" cy="327.0" r="1.4" fill="#fff3ea" opacity="0.41"/><circle cx="288.9" cy="226.9" r="2.1" fill="#fff3ea" opacity="0.61"/><circle cx="131.5" cy="407.3" r="2.6" fill="#e58e68" opacity="0.53"/><circle cx="253.4" cy="394.4" r="2.3" fill="#e58e68" opacity="0.35"/><circle cx="382.7" cy="217.2" r="1.6" fill="#e58e68" opacity="0.52"/><circle cx="430.0" cy="391.2" r="1.5" fill="#ffd4bd" opacity="0.81"/><circle cx="266.1" cy="398.3" r="2.5" fill="#fff3ea" opacity="0.68"/><circle cx="315.6" cy="185.4" r="1.2" fill="#ffd4bd" opacity="0.65"/><circle cx="358.9" cy="410.7" r="1.8" fill="#e58e68" opacity="0.84"/><circle cx="263.6" cy="307.4" r="1.8" fill="#e58e68" opacity="0.43"/><circle cx="119.0" cy="181.0" r="2.0" fill="#fff3ea" opacity="0.36"/><circle cx="82.3" cy="376.1" r="2.1" fill="#e58e68" opacity="0.68"/><circle cx="359.4" cy="299.0" r="2.8" fill="#e58e68" opacity="0.71"/><circle cx="327.5" cy="325.9" r="2.2" fill="#ffd4bd" opacity="0.69"/><circle cx="327.6" cy="166.0" r="1.7" fill="#ffd4bd" opacity="0.54"/><circle cx="273.5" cy="275.5" r="2.0" fill="#e58e68" opacity="0.88"/><circle cx="396.7" cy="274.4" r="2.6" fill="#fff3ea" opacity="0.71"/><circle cx="381.7" cy="324.0" r="1.9" fill="#e58e68" opacity="0.88"/><circle cx="421.3" cy="266.7" r="1.4" fill="#e58e68" opacity="0.47"/><circle cx="112.0" cy="182.8" r="2.5" fill="#e58e68" opacity="0.71"/><circle cx="105.3" cy="310.1" r="1.6" fill="#ffd4bd" opacity="0.43"/><circle cx="126.5" cy="290.1" r="1.6" fill="#ffd4bd" opacity="0.52"/><circle cx="222.0" cy="255.2" r="2.7" fill="#ffd4bd" opacity="0.63"/><circle cx="245.2" cy="345.7" r="1.2" fill="#e58e68" opacity="0.78"/><circle cx="193.7" cy="167.3" r="1.8" fill="#e58e68" opacity="0.50"/><circle cx="246.7" cy="150.3" r="2.6" fill="#e58e68" opacity="0.73"/><circle cx="377.7" cy="351.8" r="2.1" fill="#ffd4bd" opacity="0.78"/><circle cx="301.5" cy="384.1" r="2.4" fill="#e58e68" opacity="0.63"/><circle cx="200.9" cy="285.9" r="1.6" fill="#e58e68" opacity="0.42"/><circle cx="391.7" cy="327.0" r="2.2" fill="#fff3ea" opacity="0.49"/><circle cx="169.7" cy="175.2" r="1.4" fill="#e58e68" opacity="0.42"/><circle cx="196.7" cy="309.9" r="1.8" fill="#ffd4bd" opacity="0.63"/><circle cx="346.9" cy="386.4" r="2.8" fill="#fff3ea" opacity="0.45"/><circle cx="313.6" cy="338.2" r="2.1" fill="#ffd4bd" opacity="0.61"/><circle cx="169.2" cy="423.0" r="2.0" fill="#e58e68" opacity="0.78"/><circle cx="260.6" cy="257.4" r="1.6" fill="#e58e68" opacity="0.82"/><circle cx="120.5" cy="192.8" r="2.0" fill="#e58e68" opacity="0.44"/><circle cx="194.9" cy="379.0" r="1.9" fill="#ffd4bd" opacity="0.45"/><circle cx="151.4" cy="409.7" r="2.0" fill="#fff3ea" opacity="0.63"/><circle cx="294.0" cy="385.9" r="2.6" fill="#e58e68" opacity="0.67"/><circle cx="240.6" cy="255.1" r="2.4" fill="#ffd4bd" opacity="0.60"/><circle cx="233.3" cy="289.8" r="2.6" fill="#ffd4bd" opacity="0.84"/><circle cx="352.6" cy="323.9" r="2.2" fill="#fff3ea" opacity="0.57"/><circle cx="312.6" cy="182.7" r="1.7" fill="#ffd4bd" opacity="0.64"/><circle cx="421.2" cy="179.4" r="2.0" fill="#fff3ea" opacity="0.58"/><circle cx="293.1" cy="375.5" r="2.1" fill="#e58e68" opacity="0.87"/><circle cx="273.0" cy="222.2" r="2.6" fill="#ffd4bd" opacity="0.52"/><circle cx="123.2" cy="152.4" r="2.5" fill="#fff3ea" opacity="0.48"/><circle cx="400.9" cy="350.9" r="1.4" fill="#fff3ea" opacity="0.57"/><circle cx="362.1" cy="371.8" r="2.6" fill="#fff3ea" opacity="0.61"/><circle cx="314.9" cy="275.3" r="1.9" fill="#fff3ea" opacity="0.76"/><circle cx="329.4" cy="283.9" r="1.8" fill="#fff3ea" opacity="0.46"/><circle cx="194.1" cy="226.9" r="2.6" fill="#ffd4bd" opacity="0.46"/><circle cx="89.0" cy="361.9" r="2.0" fill="#e58e68" opacity="0.76"/><circle cx="101.2" cy="351.8" r="1.2" fill="#e58e68" opacity="0.61"/><circle cx="80.1" cy="219.0" r="2.5" fill="#e58e68" opacity="0.90"/><circle cx="384.4" cy="377.1" r="2.7" fill="#fff3ea" opacity="0.50"/><circle cx="398.4" cy="325.4" r="1.6" fill="#ffd4bd" opacity="0.81"/><circle cx="243.1" cy="151.5" r="1.2" fill="#fff3ea" opacity="0.43"/><circle cx="224.3" cy="416.9" r="1.3" fill="#ffd4bd" opacity="0.65"/><circle cx="313.9" cy="336.4" r="1.7" fill="#ffd4bd" opacity="0.45"/><circle cx="324.9" cy="214.7" r="1.7" fill="#ffd4bd" opacity="0.35"/><circle cx="287.7" cy="321.5" r="2.4" fill="#fff3ea" opacity="0.77"/><circle cx="286.3" cy="331.8" r="2.2" fill="#fff3ea" opacity="0.41"/><circle cx="302.0" cy="320.1" r="2.5" fill="#fff3ea" opacity="0.52"/><circle cx="103.8" cy="338.5" r="2.8" fill="#ffd4bd" opacity="0.70"/><circle cx="382.2" cy="405.9" r="1.6" fill="#ffd4bd" opacity="0.44"/><circle cx="387.0" cy="188.6" r="2.1" fill="#e58e68" opacity="0.72"/><circle cx="191.0" cy="365.7" r="1.7" fill="#fff3ea" opacity="0.53"/><circle cx="182.6" cy="374.2" r="1.4" fill="#fff3ea" opacity="0.79"/><circle cx="130.7" cy="308.2" r="2.5" fill="#e58e68" opacity="0.51"/><circle cx="393.8" cy="417.4" r="2.0" fill="#fff3ea" opacity="0.45"/><circle cx="327.9" cy="233.0" r="2.7" fill="#e58e68" opacity="0.90"/><circle cx="241.6" cy="395.7" r="2.7" fill="#ffd4bd" opacity="0.54"/><circle cx="316.8" cy="163.2" r="1.5" fill="#ffd4bd" opacity="0.57"/><circle cx="183.6" cy="319.3" r="1.5" fill="#e58e68" opacity="0.77"/><circle cx="266.6" cy="347.4" r="2.4" fill="#e58e68" opacity="0.61"/><circle cx="409.5" cy="184.3" r="2.5" fill="#fff3ea" opacity="0.71"/><circle cx="127.4" cy="346.1" r="2.7" fill="#e58e68" opacity="0.57"/><circle cx="264.9" cy="228.3" r="2.2" fill="#fff3ea" opacity="0.62"/><circle cx="389.7" cy="213.6" r="1.8" fill="#ffd4bd" opacity="0.43"/><circle cx="324.7" cy="355.4" r="1.5" fill="#e58e68" opacity="0.67"/><circle cx="290.3" cy="221.0" r="1.5" fill="#e58e68" opacity="0.76"/><circle cx="244.3" cy="222.0" r="2.5" fill="#fff3ea" opacity="0.80"/><circle cx="373.9" cy="186.7" r="1.7" fill="#fff3ea" opacity="0.54"/><circle cx="381.4" cy="350.7" r="2.5" fill="#fff3ea" opacity="0.73"/><circle cx="292.8" cy="302.6" r="1.3" fill="#e58e68" opacity="0.55"/><circle cx="401.2" cy="159.6" r="1.4" fill="#fff3ea" opacity="0.40"/><circle cx="396.9" cy="212.9" r="2.0" fill="#fff3ea" opacity="0.58"/><circle cx="117.9" cy="164.7" r="2.2" fill="#fff3ea" opacity="0.64"/><circle cx="223.4" cy="203.4" r="1.5" fill="#fff3ea" opacity="0.48"/><circle cx="360.1" cy="294.0" r="1.3" fill="#e58e68" opacity="0.43"/><circle cx="324.3" cy="345.8" r="2.5" fill="#e58e68" opacity="0.39"/><circle cx="123.2" cy="231.3" r="2.4" fill="#ffd4bd" opacity="0.62"/><circle cx="170.8" cy="389.8" r="1.6" fill="#e58e68" opacity="0.62"/><circle cx="199.6" cy="302.8" r="2.7" fill="#fff3ea" opacity="0.66"/><circle cx="417.8" cy="340.2" r="1.8" fill="#fff3ea" opacity="0.53"/><circle cx="420.2" cy="241.5" r="2.2" fill="#fff3ea" opacity="0.87"/><circle cx="349.3" cy="288.0" r="1.7" fill="#e58e68" opacity="0.88"/><circle cx="131.9" cy="417.3" r="1.3" fill="#e58e68" opacity="0.39"/><circle cx="84.5" cy="384.6" r="1.6" fill="#e58e68" opacity="0.79"/><circle cx="341.7" cy="236.7" r="2.5" fill="#fff3ea" opacity="0.60"/><circle cx="228.4" cy="213.4" r="2.4" fill="#ffd4bd" opacity="0.88"/><circle cx="207.6" cy="290.7" r="2.6" fill="#ffd4bd" opacity="0.58"/><circle cx="85.9" cy="320.6" r="2.0" fill="#ffd4bd" opacity="0.86"/><circle cx="412.7" cy="274.2" r="1.9" fill="#e58e68" opacity="0.81"/><circle cx="215.8" cy="373.4" r="2.2" fill="#ffd4bd" opacity="0.40"/><circle cx="119.7" cy="418.6" r="1.3" fill="#fff3ea" opacity="0.45"/><circle cx="379.7" cy="421.4" r="1.9" fill="#ffd4bd" opacity="0.78"/><circle cx="325.8" cy="363.5" r="1.2" fill="#ffd4bd" opacity="0.42"/><circle cx="206.7" cy="359.4" r="2.4" fill="#ffd4bd" opacity="0.59"/><circle cx="166.5" cy="415.1" r="2.5" fill="#ffd4bd" opacity="0.60"/><circle cx="96.1" cy="421.0" r="1.9" fill="#e58e68" opacity="0.59"/><circle cx="322.4" cy="170.7" r="1.4" fill="#e58e68" opacity="0.73"/><circle cx="154.0" cy="374.7" r="2.6" fill="#ffd4bd" opacity="0.59"/><circle cx="295.8" cy="209.6" r="1.9" fill="#fff3ea" opacity="0.55"/><circle cx="239.2" cy="344.8" r="2.3" fill="#e58e68" opacity="0.70"/><circle cx="252.4" cy="334.6" r="2.0" fill="#fff3ea" opacity="0.58"/><circle cx="278.6" cy="395.6" r="1.6" fill="#fff3ea" opacity="0.64"/><circle cx="267.3" cy="226.3" r="2.1" fill="#e58e68" opacity="0.39"/><circle cx="292.4" cy="420.2" r="2.5" fill="#e58e68" opacity="0.45"/><circle cx="90.4" cy="313.7" r="2.4" fill="#ffd4bd" opacity="0.61"/><circle cx="186.7" cy="300.6" r="1.6" fill="#fff3ea" opacity="0.62"/><circle cx="349.4" cy="354.5" r="2.1" fill="#e58e68" opacity="0.36"/><circle cx="234.7" cy="162.4" r="2.4" fill="#fff3ea" opacity="0.61"/><circle cx="272.9" cy="193.3" r="2.6" fill="#e58e68" opacity="0.50"/><circle cx="281.1" cy="161.8" r="1.9" fill="#ffd4bd" opacity="0.53"/><circle cx="341.1" cy="292.2" r="1.6" fill="#ffd4bd" opacity="0.80"/><circle cx="261.1" cy="311.5" r="1.7" fill="#e58e68" opacity="0.67"/><circle cx="394.6" cy="239.0" r="1.2" fill="#ffd4bd" opacity="0.81"/><circle cx="348.6" cy="177.9" r="1.8" fill="#e58e68" opacity="0.55"/><circle cx="300.4" cy="327.8" r="2.0" fill="#e58e68" opacity="0.40"/><circle cx="106.0" cy="247.7" r="2.5" fill="#fff3ea" opacity="0.65"/><circle cx="133.0" cy="407.0" r="1.9" fill="#e58e68" opacity="0.90"/><circle cx="112.0" cy="426.0" r="2.0" fill="#e58e68" opacity="0.85"/><circle cx="201.4" cy="301.6" r="2.3" fill="#fff3ea" opacity="0.64"/><circle cx="110.2" cy="343.6" r="2.3" fill="#ffd4bd" opacity="0.73"/><circle cx="369.9" cy="161.2" r="1.8" fill="#e58e68" opacity="0.51"/><circle cx="152.3" cy="399.6" r="1.9" fill="#ffd4bd" opacity="0.44"/><circle cx="397.9" cy="211.0" r="2.0" fill="#ffd4bd" opacity="0.42"/><circle cx="245.9" cy="410.2" r="1.7" fill="#e58e68" opacity="0.78"/><circle cx="282.1" cy="333.0" r="2.1" fill="#fff3ea" opacity="0.63"/><circle cx="321.6" cy="220.5" r="1.6" fill="#fff3ea" opacity="0.47"/><circle cx="187.5" cy="299.6" r="2.0" fill="#e58e68" opacity="0.58"/><circle cx="290.4" cy="333.6" r="1.5" fill="#fff3ea" opacity="0.80"/><circle cx="258.5" cy="365.6" r="1.5" fill="#fff3ea" opacity="0.72"/><circle cx="280.9" cy="365.8" r="1.2" fill="#e58e68" opacity="0.72"/><circle cx="83.3" cy="287.1" r="2.5" fill="#ffd4bd" opacity="0.60"/><circle cx="174.0" cy="206.1" r="1.9" fill="#e58e68" opacity="0.41"/><circle cx="114.7" cy="180.4" r="1.4" fill="#ffd4bd" opacity="0.66"/><circle cx="340.6" cy="365.0" r="1.4" fill="#ffd4bd" opacity="0.83"/><circle cx="156.4" cy="337.6" r="2.7" fill="#e58e68" opacity="0.55"/><circle cx="180.6" cy="264.6" r="1.8" fill="#e58e68" opacity="0.64"/><circle cx="164.9" cy="247.8" r="1.5" fill="#e58e68" opacity="0.44"/><circle cx="92.1" cy="371.9" r="2.6" fill="#fff3ea" opacity="0.80"/><circle cx="358.0" cy="150.6" r="2.2" fill="#fff3ea" opacity="0.66"/><circle cx="299.9" cy="252.0" r="2.2" fill="#e58e68" opacity="0.71"/><circle cx="228.7" cy="182.7" r="2.4" fill="#e58e68" opacity="0.56"/><circle cx="259.2" cy="410.1" r="2.3" fill="#ffd4bd" opacity="0.56"/><circle cx="300.3" cy="343.1" r="1.4" fill="#fff3ea" opacity="0.65"/><circle cx="317.5" cy="301.7" r="1.7" fill="#ffd4bd" opacity="0.69"/><circle cx="403.8" cy="259.0" r="2.8" fill="#ffd4bd" opacity="0.58"/><circle cx="203.5" cy="366.8" r="2.2" fill="#ffd4bd" opacity="0.68"/><circle cx="271.6" cy="366.3" r="1.7" fill="#fff3ea" opacity="0.82"/><circle cx="159.4" cy="162.9" r="1.6" fill="#ffd4bd" opacity="0.38"/><circle cx="282.3" cy="276.3" r="1.2" fill="#ffd4bd" opacity="0.64"/><circle cx="196.2" cy="355.3" r="2.0" fill="#e58e68" opacity="0.41"/><circle cx="97.1" cy="374.3" r="2.0" fill="#ffd4bd" opacity="0.64"/><circle cx="196.0" cy="174.6" r="2.0" fill="#e58e68" opacity="0.55"/><circle cx="173.5" cy="303.8" r="2.4" fill="#e58e68" opacity="0.79"/><circle cx="89.2" cy="325.8" r="1.4" fill="#ffd4bd" opacity="0.68"/><circle cx="172.1" cy="151.7" r="2.2" fill="#e58e68" opacity="0.43"/><circle cx="353.3" cy="248.0" r="1.8" fill="#e58e68" opacity="0.71"/><circle cx="104.8" cy="389.1" r="1.2" fill="#e58e68" opacity="0.46"/><circle cx="217.0" cy="357.0" r="2.6" fill="#ffd4bd" opacity="0.40"/><circle cx="258.4" cy="212.3" r="2.3" fill="#fff3ea" opacity="0.58"/><circle cx="112.9" cy="287.0" r="1.5" fill="#fff3ea" opacity="0.57"/><circle cx="137.6" cy="249.3" r="2.5" fill="#e58e68" opacity="0.52"/><circle cx="393.7" cy="148.9" r="1.3" fill="#e58e68" opacity="0.71"/><circle cx="230.4" cy="352.5" r="2.3" fill="#fff3ea" opacity="0.58"/><circle cx="104.6" cy="359.0" r="2.2" fill="#fff3ea" opacity="0.50"/><circle cx="135.0" cy="355.7" r="1.4" fill="#ffd4bd" opacity="0.44"/><circle cx="377.7" cy="288.9" r="2.3" fill="#fff3ea" opacity="0.65"/><circle cx="86.7" cy="388.5" r="2.0" fill="#e58e68" opacity="0.42"/><circle cx="272.3" cy="350.2" r="1.8" fill="#e58e68" opacity="0.68"/><circle cx="393.3" cy="203.2" r="2.4" fill="#fff3ea" opacity="0.76"/><circle cx="266.7" cy="317.6" r="2.2" fill="#ffd4bd" opacity="0.52"/><circle cx="270.0" cy="315.4" r="1.6" fill="#fff3ea" opacity="0.64"/><circle cx="148.5" cy="174.8" r="1.8" fill="#fff3ea" opacity="0.70"/><circle cx="180.2" cy="269.3" r="1.7" fill="#e58e68" opacity="0.56"/><circle cx="181.7" cy="392.3" r="1.5" fill="#ffd4bd" opacity="0.50"/><circle cx="140.8" cy="353.4" r="1.2" fill="#e58e68" opacity="0.84"/><circle cx="235.0" cy="332.9" r="1.2" fill="#ffd4bd" opacity="0.53"/><circle cx="115.8" cy="314.2" r="2.1" fill="#fff3ea" opacity="0.61"/><circle cx="196.9" cy="338.0" r="2.7" fill="#fff3ea" opacity="0.88"/><circle cx="261.6" cy="389.8" r="2.2" fill="#e58e68" opacity="0.72"/><circle cx="313.0" cy="370.0" r="2.5" fill="#fff3ea" opacity="0.60"/><circle cx="237.0" cy="378.7" r="2.3" fill="#e58e68" opacity="0.66"/><circle cx="133.9" cy="323.8" r="2.0" fill="#fff3ea" opacity="0.51"/><circle cx="284.9" cy="201.4" r="2.6" fill="#e58e68" opacity="0.62"/><circle cx="414.8" cy="265.7" r="1.9" fill="#ffd4bd" opacity="0.61"/><circle cx="88.3" cy="411.6" r="1.8" fill="#ffd4bd" opacity="0.36"/><circle cx="402.2" cy="196.0" r="2.0" fill="#ffd4bd" opacity="0.80"/><circle cx="381.7" cy="317.3" r="1.7" fill="#ffd4bd" opacity="0.66"/><circle cx="248.9" cy="214.3" r="2.0" fill="#e58e68" opacity="0.65"/><circle cx="418.6" cy="392.2" r="2.3" fill="#fff3ea" opacity="0.37"/><circle cx="368.0" cy="313.3" r="2.2" fill="#ffd4bd" opacity="0.88"/><circle cx="296.5" cy="352.7" r="1.6" fill="#e58e68" opacity="0.36"/><circle cx="245.3" cy="169.9" r="2.4" fill="#ffd4bd" opacity="0.72"/><circle cx="374.6" cy="302.6" r="2.4" fill="#ffd4bd" opacity="0.75"/><circle cx="307.1" cy="251.3" r="2.6" fill="#fff3ea" opacity="0.87"/><circle cx="252.3" cy="338.5" r="2.0" fill="#fff3ea" opacity="0.48"/><circle cx="209.8" cy="208.7" r="2.6" fill="#e58e68" opacity="0.42"/><circle cx="330.6" cy="217.4" r="2.0" fill="#fff3ea" opacity="0.57"/><circle cx="402.5" cy="202.5" r="1.7" fill="#fff3ea" opacity="0.84"/><circle cx="404.5" cy="346.0" r="1.5" fill="#ffd4bd" opacity="0.35"/><circle cx="263.1" cy="349.3" r="2.1" fill="#ffd4bd" opacity="0.82"/><circle cx="117.8" cy="311.3" r="2.4" fill="#e58e68" opacity="0.75"/><circle cx="413.5" cy="192.7" r="2.4" fill="#fff3ea" opacity="0.80"/><circle cx="237.6" cy="424.1" r="1.4" fill="#ffd4bd" opacity="0.43"/><circle cx="298.9" cy="185.2" r="2.2" fill="#e58e68" opacity="0.60"/><circle cx="425.6" cy="279.7" r="1.3" fill="#e58e68" opacity="0.40"/><circle cx="360.2" cy="354.7" r="1.2" fill="#fff3ea" opacity="0.77"/><circle cx="333.6" cy="172.7" r="1.3" fill="#e58e68" opacity="0.82"/><circle cx="88.4" cy="166.0" r="2.5" fill="#ffd4bd" opacity="0.69"/><circle cx="109.7" cy="302.2" r="2.2" fill="#e58e68" opacity="0.60"/><circle cx="239.6" cy="206.7" r="2.0" fill="#fff3ea" opacity="0.45"/><circle cx="391.0" cy="279.3" r="2.2" fill="#e58e68" opacity="0.69"/><circle cx="202.3" cy="150.3" r="2.7" fill="#ffd4bd" opacity="0.70"/><circle cx="343.5" cy="231.8" r="2.6" fill="#fff3ea" opacity="0.86"/><circle cx="324.7" cy="427.8" r="1.9" fill="#ffd4bd" opacity="0.78"/><circle cx="157.6" cy="281.4" r="1.2" fill="#e58e68" opacity="0.87"/><circle cx="98.8" cy="351.3" r="2.3" fill="#e58e68" opacity="0.85"/><circle cx="289.0" cy="338.1" r="1.9" fill="#e58e68" opacity="0.40"/><circle cx="340.2" cy="181.9" r="1.4" fill="#fff3ea" opacity="0.66"/><circle cx="333.5" cy="427.6" r="2.8" fill="#fff3ea" opacity="0.37"/><circle cx="292.6" cy="162.4" r="1.9" fill="#ffd4bd" opacity="0.40"/><circle cx="395.1" cy="270.5" r="1.3" fill="#e58e68" opacity="0.88"/><circle cx="104.7" cy="385.2" r="1.2" fill="#e58e68" opacity="0.39"/><circle cx="349.0" cy="196.6" r="2.3" fill="#e58e68" opacity="0.45"/><circle cx="268.6" cy="320.9" r="1.9" fill="#ffd4bd" opacity="0.88"/><circle cx="116.4" cy="269.8" r="1.5" fill="#fff3ea" opacity="0.88"/><circle cx="230.7" cy="339.4" r="1.5" fill="#fff3ea" opacity="0.67"/><circle cx="297.4" cy="300.5" r="2.4" fill="#e58e68" opacity="0.64"/><circle cx="257.1" cy="173.6" r="2.6" fill="#ffd4bd" opacity="0.70"/><circle cx="278.2" cy="411.1" r="2.5" fill="#e58e68" opacity="0.52"/><circle cx="174.9" cy="219.6" r="2.0" fill="#e58e68" opacity="0.88"/><circle cx="133.2" cy="295.6" r="1.3" fill="#fff3ea" opacity="0.40"/><circle cx="119.8" cy="330.6" r="2.8" fill="#e58e68" opacity="0.81"/><circle cx="285.9" cy="239.5" r="2.7" fill="#ffd4bd" opacity="0.60"/><circle cx="120.5" cy="352.5" r="1.6" fill="#e58e68" opacity="0.86"/><circle cx="424.2" cy="259.6" r="1.8" fill="#fff3ea" opacity="0.61"/><circle cx="105.7" cy="166.1" r="1.3" fill="#fff3ea" opacity="0.44"/><circle cx="122.2" cy="294.5" r="2.8" fill="#ffd4bd" opacity="0.83"/><circle cx="85.8" cy="163.1" r="2.0" fill="#ffd4bd" opacity="0.36"/><circle cx="249.3" cy="424.8" r="2.3" fill="#fff3ea" opacity="0.70"/><circle cx="380.2" cy="161.4" r="1.9" fill="#e58e68" opacity="0.39"/><circle cx="420.7" cy="375.0" r="2.3" fill="#e58e68" opacity="0.80"/><circle cx="222.9" cy="382.1" r="2.6" fill="#fff3ea" opacity="0.82"/><circle cx="392.1" cy="391.9" r="2.1" fill="#e58e68" opacity="0.49"/><circle cx="222.9" cy="308.1" r="1.6" fill="#e58e68" opacity="0.72"/><circle cx="192.6" cy="236.0" r="1.2" fill="#e58e68" opacity="0.83"/><circle cx="216.2" cy="290.6" r="1.8" fill="#fff3ea" opacity="0.73"/><circle cx="299.9" cy="348.5" r="1.2" fill="#e58e68" opacity="0.70"/><circle cx="397.5" cy="169.8" r="2.2" fill="#ffd4bd" opacity="0.70"/><circle cx="368.5" cy="253.4" r="1.6" fill="#fff3ea" opacity="0.72"/><circle cx="282.8" cy="271.4" r="1.4" fill="#fff3ea" opacity="0.72"/><circle cx="393.2" cy="178.0" r="1.6" fill="#fff3ea" opacity="0.62"/><circle cx="386.4" cy="291.0" r="2.2" fill="#fff3ea" opacity="0.36"/><circle cx="427.6" cy="167.6" r="2.2" fill="#ffd4bd" opacity="0.81"/><circle cx="330.4" cy="370.4" r="2.2" fill="#fff3ea" opacity="0.63"/><circle cx="420.5" cy="276.5" r="2.2" fill="#e58e68" opacity="0.72"/><circle cx="429.8" cy="267.3" r="2.6" fill="#ffd4bd" opacity="0.52"/><circle cx="280.3" cy="219.8" r="2.5" fill="#e58e68" opacity="0.54"/><circle cx="374.9" cy="173.9" r="2.3" fill="#fff3ea" opacity="0.69"/><circle cx="85.5" cy="186.6" r="2.4" fill="#fff3ea" opacity="0.38"/><circle cx="88.3" cy="310.8" r="2.0" fill="#ffd4bd" opacity="0.58"/><circle cx="392.0" cy="333.1" r="1.8" fill="#fff3ea" opacity="0.43"/><circle cx="220.3" cy="312.5" r="1.9" fill="#ffd4bd" opacity="0.39"/><circle cx="180.4" cy="325.6" r="1.2" fill="#e58e68" opacity="0.89"/><circle cx="226.9" cy="241.2" r="1.6" fill="#ffd4bd" opacity="0.77"/><circle cx="365.8" cy="207.6" r="1.7" fill="#ffd4bd" opacity="0.36"/><circle cx="83.1" cy="328.4" r="1.5" fill="#fff3ea" opacity="0.52"/><circle cx="115.3" cy="148.8" r="1.2" fill="#ffd4bd" opacity="0.41"/><circle cx="360.3" cy="159.3" r="2.1" fill="#e58e68" opacity="0.86"/><circle cx="91.1" cy="203.8" r="1.7" fill="#e58e68" opacity="0.67"/><circle cx="413.4" cy="187.3" r="1.7" fill="#fff3ea" opacity="0.59"/><circle cx="264.9" cy="372.3" r="2.2" fill="#e58e68" opacity="0.57"/><circle cx="323.1" cy="163.1" r="1.5" fill="#ffd4bd" opacity="0.48"/><circle cx="130.5" cy="197.0" r="1.5" fill="#e58e68" opacity="0.60"/><circle cx="325.6" cy="419.4" r="1.9" fill="#ffd4bd" opacity="0.75"/><circle cx="292.2" cy="328.3" r="1.8" fill="#e58e68" opacity="0.79"/><circle cx="373.4" cy="294.4" r="2.1" fill="#fff3ea" opacity="0.85"/><circle cx="111.6" cy="169.9" r="1.6" fill="#fff3ea" opacity="0.55"/><circle cx="170.8" cy="269.1" r="2.1" fill="#fff3ea" opacity="0.67"/><circle cx="109.4" cy="388.7" r="2.6" fill="#ffd4bd" opacity="0.60"/><circle cx="113.6" cy="265.6" r="1.6" fill="#ffd4bd" opacity="0.55"/><circle cx="309.4" cy="374.2" r="1.6" fill="#fff3ea" opacity="0.68"/><circle cx="257.5" cy="184.4" r="2.5" fill="#e58e68" opacity="0.63"/><circle cx="122.7" cy="261.2" r="2.6" fill="#e58e68" opacity="0.90"/><circle cx="87.6" cy="150.0" r="1.2" fill="#fff3ea" opacity="0.69"/><circle cx="213.0" cy="254.3" r="2.1" fill="#ffd4bd" opacity="0.46"/><circle cx="135.3" cy="149.8" r="1.9" fill="#ffd4bd" opacity="0.69"/><circle cx="213.3" cy="397.4" r="2.5" fill="#fff3ea" opacity="0.54"/><circle cx="115.2" cy="390.2" r="1.5" fill="#e58e68" opacity="0.63"/><circle cx="368.5" cy="354.2" r="1.5" fill="#ffd4bd" opacity="0.49"/><circle cx="233.7" cy="332.3" r="1.4" fill="#e58e68" opacity="0.89"/><circle cx="358.7" cy="326.0" r="2.6" fill="#ffd4bd" opacity="0.84"/><circle cx="156.3" cy="210.3" r="1.9" fill="#ffd4bd" opacity="0.89"/><circle cx="318.6" cy="216.8" r="2.8" fill="#ffd4bd" opacity="0.55"/><circle cx="331.0" cy="221.1" r="1.3" fill="#fff3ea" opacity="0.60"/><circle cx="403.9" cy="216.9" r="2.2" fill="#fff3ea" opacity="0.89"/><circle cx="187.7" cy="238.7" r="2.5" fill="#fff3ea" opacity="0.61"/><circle cx="314.3" cy="304.2" r="1.9" fill="#e58e68" opacity="0.86"/><circle cx="93.8" cy="265.9" r="1.4" fill="#ffd4bd" opacity="0.46"/><circle cx="356.8" cy="241.3" r="2.6" fill="#e58e68" opacity="0.46"/><circle cx="208.0" cy="321.1" r="2.8" fill="#ffd4bd" opacity="0.65"/><circle cx="285.4" cy="382.4" r="1.8" fill="#ffd4bd" opacity="0.38"/><circle cx="373.2" cy="164.8" r="2.8" fill="#fff3ea" opacity="0.73"/><circle cx="92.6" cy="149.1" r="2.4" fill="#e58e68" opacity="0.52"/><circle cx="238.5" cy="413.3" r="2.6" fill="#ffd4bd" opacity="0.66"/><circle cx="87.2" cy="404.6" r="1.6" fill="#e58e68" opacity="0.55"/><circle cx="110.9" cy="289.6" r="1.9" fill="#e58e68" opacity="0.64"/></g><ellipse cx="256" cy="190" rx="46" ry="14" fill="#b97660" opacity="0.2" filter="url(#b5)"/><ellipse cx="252" cy="184" rx="34" ry="8" fill="#fff" opacity="0.4" filter="url(#b5)"/><g clip-path="url(#body)"><rect width="512" height="512" fill="url(#shade)" /><ellipse cx="330" cy="400" rx="150" ry="50" fill="#fff" opacity="0.28" filter="url(#b18)"/><ellipse cx="180" cy="212" rx="78" ry="46" fill="#fff" opacity="0.55" filter="url(#b10)" transform="rotate(-28 180 212)"/><ellipse cx="168" cy="202" rx="26" ry="11" fill="#fff" opacity="0.9" filter="url(#b2)" transform="rotate(-28 180 212)"/></g><g clip-path="url(#body)"><rect width="512" height="512" fill="url(#shade)"/></g><g clip-path="url(#body)" opacity="0.3" filter="url(#b2)" fill="none" stroke="#9b6357" stroke-width="9" stroke-linejoin="round"><path d="M92 380 C82 252 160 148 256 148 C352 148 430 252 420 380 C420 414 394 428 352 430 L160 430 C118 428 92 414 92 380 Z"/></g><g clip-path="url(#body)" opacity="0.060"><rect x="0" y="0" width="512" height="512" filter="url(#grain)"/></g></g></svg>