<svg xmlns="http://www.w3.org/2000/svg" viewBox="0 0 600 520" width="600" height="520"><defs><filter id="b2" filterUnits="userSpaceOnUse" x="-300" y="-300" width="1400" height="1400"><feGaussianBlur stdDeviation="2"/></filter><filter id="b5" filterUnits="userSpaceOnUse" x="-300" y="-300" width="1400" height="1400"><feGaussianBlur stdDeviation="5"/></filter><filter id="b10" filterUnits="userSpaceOnUse" x="-300" y="-300" width="1400" height="1400"><feGaussianBlur stdDeviation="10"/></filter><filter id="b18" filterUnits="userSpaceOnUse" x="-300" y="-300" width="1400" height="1400"><feGaussianBlur stdDeviation="18"/></filter><filter id="round" x="-10%" y="-10%" width="120%" height="120%" color-interpolation-filters="sRGB"><feGaussianBlur stdDeviation="11" result="b"/><feColorMatrix in="b" type="matrix" values="1 0 0 0 0  0 1 0 0 0  0 0 1 0 0  0 0 0 22 -10"/></filter><filter id="grain" x="0" y="0" width="100%" height="100%"><feTurbulence type="fractalNoise" baseFrequency="0.85" numOctaves="2" seed="7" result="n"/><feColorMatrix in="n" type="matrix" values="0 0 0 0 0.15  0 0 0 0 0.08  0 0 0 0 0.2  0 0 0 1.1 -0.42"/></filter><filter id="marble" x="-20%" y="-20%" width="140%" height="140%"><feTurbulence type="fractalNoise" baseFrequency="0.006 0.010" numOctaves="2" seed="4" result="t"/><feDisplacementMap in="SourceGraphic" in2="t" scale="80" xChannelSelector="R" yChannelSelector="G"/><feGaussianBlur stdDeviation="3.5"/></filter><linearGradient id="shade" x1="0.2" y1="0.0" x2="0.8" y2="1.0"><stop offset="0" stop-color="#ffffff" stop-opacity="0.0"/><stop offset="0.55" stop-color="#3a2150" stop-opacity="0.0"/><stop offset="1" stop-color="#2a1740" stop-opacity="0.34"/></linearGradient><linearGradient id="tf" x1="0" y1="0" x2="1" y2="1"><stop offset="0" stop-color="#c9fbf3"/><stop offset="1" stop-color="#6fd8cb"/></linearGradient><linearGradient id="ff" x1="0.1" y1="0" x2="0.7" y2="1"><stop offset="0" stop-color="#5fd0c3"/><stop offset="0.6" stop-color="#2fa2a2"/><stop offset="1" stop-color="#1b7f88"/></linearGradient><linearGradient id="sf" x1="0" y1="0" x2="0" y2="1"><stop offset="0" stop-color="#2a9ea0"/><stop offset="1" stop-color="#0f6068"/></linearGradient><linearGradient id="lf" x1="0.1" y1="0" x2="0.7" y2="1"><stop offset="0" stop-color="#7fe3d6"/><stop offset="1" stop-color="#2fa2a2"/></linearGradient><linearGradient id="rib" x1="0" y1="0" x2="1" y2="1"><stop offset="0" stop-color="#f1e6ff"/><stop offset="0.5" stop-color="#c9b0f0"/><stop offset="1" stop-color="#9a78d0"/></linearGradient><linearGradient id="med" gradientUnits="userSpaceOnUse" x1="200" y1="290" x2="300" y2="400"><stop offset="0" stop-color="#f4eaff"/><stop offset="0.55" stop-color="#cdb4f2"/><stop offset="1" stop-color="#9a78d0"/></linearGradient><linearGradient id="goldu" gradientUnits="userSpaceOnUse" x1="190" y1="290" x2="310" y2="400"><stop offset="0" stop-color="#fff0b8"/><stop offset="0.5" stop-color="#e9b94d"/><stop offset="1" stop-color="#b98a2a"/></linearGradient><linearGradient id="gold" x1="0" y1="0" x2="1" y2="1"><stop offset="0" stop-color="#fff0b8"/><stop offset="0.5" stop-color="#e9b94d"/><stop offset="1" stop-color="#b98a2a"/></linearGradient><radialGradient id="glow" cx="0.5" cy="0.5" r="0.7" fx="0.5" fy="0.5"><stop offset="0" stop-color="#fffbe9" stop-opacity="1"/><stop offset="0.35" stop-color="#f1e0ff" stop-opacity="0.95"/><stop offset="1" stop-color="#8a6ac8" stop-opacity="0.9"/></radialGradient><linearGradient id="deep" x1="0" y1="0" x2="0" y2="1"><stop offset="0" stop-color="#3b2a68"/><stop offset="1" stop-color="#7a5cb8"/></linearGradient><clipPath id="cbf"><path d="M90.0 250.0 L410.0 250.0 L410.0 440.0 L90.0 440.0 Z"/></clipPath><clipPath id="cbs"><path d="M410.0 250.0 L498.0 190.0 L498.0 380.0 L410.0 440.0 Z"/></clipPath><clipPath id="clf"><path d="M80.0 168.0 L420.0 168.0 L420.0 256.0 L80.0 256.0 Z"/></clipPath><clipPath id="cls"><path d="M420.0 168.0 L508.0 108.0 L508.0 196.0 L420.0 256.0 Z"/></clipPath><clipPath id="clt"><path d="M80.0 168.0 L168.0 108.0 L508.0 108.0 L420.0 168.0 Z"/></clipPath></defs><g filter="url(#round)"><path d="M420.0 168.0 L508.0 108.0 L508.0 196.0 L420.0 256.0 Z" fill="url(#sf)"/><path d="M80.0 168.0 L168.0 108.0 L508.0 108.0 L420.0 168.0 Z" fill="url(#tf)"/><path d="M80.0 168.0 L420.0 168.0 L420.0 256.0 L80.0 256.0 Z" fill="url(#lf)"/></g><g clip-path="url(#clf)"><g filter="url(#marble)"><path d="M40 190 C170 100 300 250 430 150 S560 180 600 110" stroke="url(#rib)" stroke-width="34" fill="none" opacity="0.88" stroke-linecap="round"/><path d="M40 228 C170 138 300 288 430 188 S560 218 600 148" stroke="#f7efff" stroke-width="28" fill="none" opacity="0.88" stroke-linecap="round"/><path d="M40 266 C170 176 300 326 430 226 S560 256 600 186" stroke="url(#rib)" stroke-width="22" fill="none" opacity="0.88" stroke-linecap="round"/></g></g><g clip-path="url(#cls)"><g filter="url(#marble)"><path d="M40 140 C170 50 300 200 430 100 S560 130 600 60" stroke="url(#rib)" stroke-width="34" fill="none" opacity="0.7" stroke-linecap="round"/><path d="M40 170 C170 80 300 230 430 130 S560 160 600 90" stroke="#f7efff" stroke-width="28" fill="none" opacity="0.7" stroke-linecap="round"/><path d="M40 200 C170 110 300 260 430 160 S560 190 600 120" stroke="url(#rib)" stroke-width="22" fill="none" opacity="0.7" stroke-linecap="round"/></g></g><path d="M80 248 L420 248 L508 188" stroke="url(#gold)" stroke-width="7" fill="none" stroke-linecap="round" stroke-linejoin="round"/><path d="M80 168 L168 108 L508 108 M80 168 L420 168 L508 108" stroke="#fff" stroke-width="7" fill="none" opacity="0.5" filter="url(#b5)" stroke-linecap="round"/><g clip-path="url(#clt)"><ellipse cx="250" cy="138" rx="130" ry="14" fill="#fff" opacity="0.65" filter="url(#b10)" transform="rotate(-8 250 138)"/><ellipse cx="206" cy="132" rx="46" ry="5" fill="#fff" opacity="0.95" filter="url(#b2)" transform="rotate(-8 250 138)"/></g><path d="M271.9 176.6 Q274.9 184.2 282.4 187.2 Q274.9 190.1 271.9 197.7 Q269.0 190.1 261.4 187.2 Q269.0 184.2 271.9 176.6Z" fill="#fff0b8" opacity="0.70"/><path d="M424.9 133.0 Q427.7 140.0 434.7 142.8 Q427.7 145.5 424.9 152.6 Q422.2 145.5 415.1 142.8 Q422.2 140.0 424.9 133.0Z" fill="#fff0b8" opacity="0.77"/><path d="M401.3 124.5 Q403.2 129.4 408.2 131.3 Q403.2 133.2 401.3 138.1 Q399.4 133.2 394.5 131.3 Q399.4 129.4 401.3 124.5Z" fill="#e9b94d" opacity="0.73"/><path d="M438.3 187.6 Q440.7 193.7 446.9 196.1 Q440.7 198.5 438.3 204.7 Q435.9 198.5 429.8 196.1 Q435.9 193.7 438.3 187.6Z" fill="#fff0b8" opacity="0.89"/><path d="M348.5 187.9 Q350.2 192.2 354.4 193.9 Q350.2 195.5 348.5 199.8 Q346.8 195.5 342.5 193.9 Q346.8 192.2 348.5 187.9Z" fill="#e9b94d" opacity="0.84"/><path d="M124.0 114.0 Q126.9 121.4 134.3 124.3 Q126.9 127.2 124.0 134.6 Q121.1 127.2 113.7 124.3 Q121.1 121.4 124.0 114.0Z" fill="#fff" opacity="0.55"/><path d="M276.3 162.8 Q279.1 170.0 286.3 172.9 Q279.1 175.7 276.3 182.9 Q273.5 175.7 266.2 172.9 Q273.5 170.0 276.3 162.8Z" fill="#fff" opacity="0.62"/></svg>